# xmcd CD database file
#
# Track frame offsets:
#	152
#	13910
#	27240
#	39955
#	52662
#	60792
#	72875
#	84275
#	96630
#	105150
#	120212
#	132172
#	142285
#	153410
#	162710
#	171850
#	181360
#
# Disc length: 2558 seconds
#
# Revision: 0
# Processed by: cddbd v1.5.1PL0 Copyright (c) Steve Scherf et al.
# Submitted via: CDex 1.51
#
DISCID=d609fc11
DTITLE=Willie Nelson - 16 Great Songs
DYEAR=1990
DGENRE=Country
TTITLE0=Home is where you're happy
TTITLE1=You'll always have someone
TTITLE2=Any old arms won't do
TTITLE3=I just don't understand
TTITLE4=Things to remember
TTITLE5=Happiness lives next door
TTITLE6=I'm going to loose a lot of teardrops
TTITLE7=I can't find the time
TTITLE8=Slow down old world
TTITLE9=And so will you my love
TTITLE10=I hope so
TTITLE11=Let's pretend
TTITLE12=Go away
TTITLE13=Right from wrong
TTITLE14=Waiting time
TTITLE15=One step beyond
TTITLE16=I feel sorry for him
EXTD=YEAR: 1990
EXTT0=
EXTT1=
EXTT2=
EXTT3=
EXTT4=
EXTT5=
EXTT6=
EXTT7=
EXTT8=
EXTT9=
EXTT10=
EXTT11=
EXTT12=
EXTT13=
EXTT14=
EXTT15=
EXTT16=
PLAYORDER=
